<?xml version="1.0" encoding="iso-8859-1"?>
<!DOCTYPE svg PUBLIC "-//W3C//DTD SVG 20000303 Stylable//EN"
"http://www.w3.org/TR/2000/03/WD-SVG-20000303/DTD/svg-20000303-stylable.dtd">

<svg width="2.0104in" height="1.1632in" viewBox="0 0 999 578">

<path style="fill:#630;stroke:#000;stroke-width:2" d="M254,508 l492,0 0,42 -492,0 0,-42z" />
<path style="fill:#7f4c00" d="M254,508 l615,0 0,-316 -308,-21 -307,0 0,337z" />
<path style="fill:#4c1900" d="M672,222 l144,0 0,215 -144,0 0,-215z" />
<path style="fill:#4c1900" d="M284,252 l368,0 0,268 -368,0 0,-268z" />
<path style="fill:#b27f00;stroke:#000;stroke-width:2" d="M397,242 l317,0 0,72 -317,0 0,-72z" />
<path style="fill:#b27f00;stroke:#000;stroke-width:2" d="M601,407 l113,0 0,71 -113,0 0,-71z" />
<path style="fill:#333;stroke:#000;stroke-width:2" d="M37,520 l217,0 0,30 -217,0 0,-30z" />
<path style="fill:#fc0;stroke:#000;stroke-width:2" d="M746,427 l123,0 0,72 -123,0 0,-72z" />
<path style="fill:#fc0;stroke:#000;stroke-width:2" d="M684,273 l185,0 0,154 -185,0 0,-154z" />
<path style="fill:#fc0;stroke:#000;stroke-width:2" d="M797,192 l51,0 0,81 -51,0 0,-81z" />
<path style="fill:#fc0;stroke:#000;stroke-width:2" d="M869,150 l101,0 0,349 -101,0 0,-349z" />
<path style="fill:#fc0;stroke:#000;stroke-width:2" d="M746,499 l70,0 0,51 -70,0 0,-51z" />
<path style="fill:#b27f00;stroke:#000;stroke-width:2" d="M37,150 l205,0 0,21 -205,0 0,-21z" />
<path style="fill:#000;stroke:#000;stroke-width:2" d="M621,180 l-30,21 -20,0 0,-41 11,0 9,-10 -9,-71 81,0 -21,81 -21,20z" />
<path style="fill:#4c4c4c;stroke:#000;stroke-width:2" d="M621,171 l-24,17 -15,0 4,-21 7,0 8,-7 -12,-68 63,0 -15,64 -16,15z" />
<path style="fill:#fc0;stroke:#000;stroke-width:2" d="M28,171 l226,0 0,349 -226,0 0,-349z" />
<path style="fill:#000" d="M797,535 l6,-4 3,4 -3,5 -6,-5z" />
<path style="fill:#000" d="M756,535 l3,-4 6,4 -6,5 -3,-5z" />
<path style="fill:#000" d="M756,514 l3,-6 6,6 -6,4 -3,-4z" />
<path style="fill:#000" d="M797,514 l6,-6 3,6 -3,4 -6,-4z" />
<path style="fill:#4c4c4c" d="M923,235 l12,-13 13,13 -13,11 -12,-11z" />
<path style="fill:#4c4c4c" d="M935,307 l13,13 -13,13 -12,-13 12,-13z" />
<path style="fill:#4c4c4c" d="M935,392 l13,13 -13,11 -12,-11 12,-13z" />
<path style="fill:none;stroke:#000;stroke-width:2" d="M705,284 l143,123" />
<path style="fill:none;stroke:#000;stroke-width:2" d="M725,284 l123,104" />
<path style="fill:none;stroke:#000;stroke-width:2" d="M746,284 l102,87" />
<path style="fill:none;stroke:#000;stroke-width:2" d="M765,284 l83,70" />
<path style="fill:none;stroke:#000;stroke-width:2" d="M786,284 l62,51" />
<path style="fill:none;stroke:#000;stroke-width:2" d="M806,284 l42,34" />
<path style="fill:none;stroke:#000;stroke-width:2" d="M827,284 l21,17" />
<path style="fill:none;stroke:#000;stroke-width:2" d="M705,301 l122,106" />
<path style="fill:none;stroke:#000;stroke-width:2" d="M705,318 l101,89" />
<path style="fill:none;stroke:#000;stroke-width:2" d="M705,337 l81,70" />
<path style="fill:none;stroke:#000;stroke-width:2" d="M705,354 l60,53" />
<path style="fill:none;stroke:#000;stroke-width:2" d="M705,371 l39,36" />
<path style="fill:none;stroke:#000;stroke-width:2" d="M705,390 l20,17" />
<path style="fill:none;stroke:#000;stroke-width:2" d="M848,284 l-143,123" />
<path style="fill:none;stroke:#000;stroke-width:2" d="M827,284 l-122,104" />
<path style="fill:none;stroke:#000;stroke-width:2" d="M806,284 l-101,87" />
<path style="fill:none;stroke:#000;stroke-width:2" d="M786,284 l-81,70" />
<path style="fill:none;stroke:#000;stroke-width:2" d="M765,284 l-60,51" />
<path style="fill:none;stroke:#000;stroke-width:2" d="M746,284 l-41,34" />
<path style="fill:none;stroke:#000;stroke-width:2" d="M725,284 l-20,17" />
<path style="fill:none;stroke:#000;stroke-width:2" d="M848,301 l-123,106" />
<path style="fill:none;stroke:#000;stroke-width:2" d="M848,318 l-102,89" />
<path style="fill:none;stroke:#000;stroke-width:2" d="M848,337 l-81,70" />
<path style="fill:none;stroke:#000;stroke-width:2" d="M848,354 l-62,53" />
<path style="fill:none;stroke:#000;stroke-width:2" d="M848,371 l-42,36" />
<path style="fill:none;stroke:#000;stroke-width:2" d="M848,390 l-21,17" />
<path style="fill:none;stroke:#000;stroke-width:2" d="M799,437 l58,51" />
<path style="fill:none;stroke:#000;stroke-width:2" d="M818,437 l39,34" />
<path style="fill:none;stroke:#000;stroke-width:2" d="M838,437 l19,17" />
<path style="fill:none;stroke:#000;stroke-width:2" d="M778,437 l59,51" />
<path style="fill:none;stroke:#000;stroke-width:2" d="M757,437 l59,51" />
<path style="fill:none;stroke:#000;stroke-width:2" d="M756,454 l39,34" />
<path style="fill:none;stroke:#000;stroke-width:2" d="M756,471 l20,17" />
<path style="fill:none;stroke:#000;stroke-width:2" d="M816,437 l-60,51" />
<path style="fill:none;stroke:#000;stroke-width:2" d="M795,437 l-39,34" />
<path style="fill:none;stroke:#000;stroke-width:2" d="M774,437 l-18,17" />
<path style="fill:none;stroke:#000;stroke-width:2" d="M837,437 l-61,51" />
<path style="fill:none;stroke:#000;stroke-width:2" d="M855,437 l-58,51" />
<path style="fill:none;stroke:#000;stroke-width:2" d="M857,454 l-39,34" />
<path style="fill:none;stroke:#000;stroke-width:2" d="M857,471 l-20,17" />
<path style="fill:#333;stroke:#fc0;stroke-width:2" d="M28,28 l226,0 0,122 -226,0 0,-122z" />
<path style="fill:none;stroke:#fc0;stroke-width:2" d="M180,48 l21,0 0,93 -21,0 0,-93" />
<path style="fill:none;stroke:#fc0;stroke-width:2" d="M212,48 l21,0 0,93 -21,0 0,-93" />
<path style="fill:none;stroke:#fc0;stroke-width:2" d="M48,69 l93,0 0,60 -93,0 0,-60" />
<path style="fill:#7f0000" d="M161,129 l10,0 0,12 -10,0 0,-12z" />
<path style="fill:#000" d="M233,505 l6,-4 3,4 -3,3 -6,-3z" />
<path style="fill:#000" d="M37,505 l6,-4 4,4 -4,3 -6,-3z" />
<path style="fill:#000" d="M37,442 l6,-5 4,5 -4,4 -6,-4z" />
<path style="fill:#000" d="M233,442 l6,-5 3,5 -3,4 -6,-4z" />
<path style="fill:#000" d="M233,382 l6,-5 3,5 -3,4 -6,-4z" />
<path style="fill:#000" d="M37,382 l6,-5 4,5 -4,4 -6,-4z" />
<path style="fill:#000" d="M37,318 l6,-4 4,4 -4,6 -6,-6z" />
<path style="fill:#000" d="M233,318 l6,-4 3,4 -3,6 -6,-6z" />
<path style="fill:#000" d="M233,259 l6,-5 3,5 -3,4 -6,-4z" />
<path style="fill:#000" d="M37,259 l6,-5 4,5 -4,4 -6,-4z" />
<path style="fill:#000" d="M37,195 l6,-3 4,3 -4,4 -6,-4z" />
<path style="fill:#000" d="M233,195 l6,-3 3,3 -3,4 -6,-4z" />
<path style="fill:#000" d="M109,192 l3,3 -3,4 -4,-4 4,-3z" />
<path style="fill:#000" d="M171,192 l6,3 -6,4 -4,-4 4,-3z" />
<path style="fill:#c90;stroke:#000;stroke-width:2" d="M120,284 l41,0 0,61 -41,0 0,-61z" />
<path style="fill:#ffe57f;stroke:#000;stroke-width:2" d="M120,284 l41,0 0,-11 -41,0 0,11z" />
<path style="fill:#960;stroke:#000;stroke-width:2" d="M120,365 l41,0 0,-20 -41,0 0,20z" />
<path style="fill:#c90" d="M529,150 l0,62 -152,0 0,-62 152,0z" />
<path style="fill:#c90" d="M305,88 l-21,0 9,-19 84,0 9,19 -21,0 0,154 -60,0 0,-154z" />
<path style="fill:#d9ab00" d="M529,156 l0,49 -152,0 0,-49 152,0z" />
<path style="fill:#d9ab00" d="M310,88 l-17,0 10,-21 66,0 8,21 -17,0 0,154 -50,0 0,-154z" />
<path style="fill:#e5bf26" d="M529,161 l0,38 -152,0 0,-38 152,0z" />
<path style="fill:#e5bf26" d="M316,88 l-11,0 5,-21 50,0 5,21 -11,0 0,154 -38,0 0,-154z" />
<path style="fill:#f2d151" d="M529,169 l0,24 -152,0 0,-24 152,0z" />
<path style="fill:#f2d151" d="M324,88 l-10,0 6,-21 32,0 4,21 -8,0 0,154 -24,0 0,-154z" />
<path style="fill:#ffe57f" d="M529,175 l0,11 -152,0 0,-11 152,0z" />
<path style="fill:#ffe57f" d="M329,88 l-3,0 1,-19 16,0 3,19 -5,0 0,154 -12,0 0,-154z" />
<path style="fill:none;stroke:#000;stroke-width:2" d="M305,88 l60,0" />
<path style="fill:none;stroke:#000;stroke-width:2" d="M529,150 l0,62 -152,0 0,-62 152,0" />
<path style="fill:none;stroke:#000;stroke-width:2" d="M305,88 l-21,0 9,-19 84,0 9,19 -21,0 0,154 -60,0 0,-154" />
<path style="fill:#c90" d="M508,129 l0,102 -60,0 0,-102 60,0z" />
<path style="fill:#c90;stroke:#000;stroke-width:2" d="M571,141 l0,81 -42,0 0,-81 42,0z" />
<path style="fill:#d9ab00" d="M571,148 l0,66 -42,0 0,-66 42,0z" />
<path style="fill:#d9ab00" d="M508,139 l0,83 -60,0 0,-83 60,0z" />
<path style="fill:#e5bf26" d="M571,156 l0,49 -42,0 0,-49 42,0z" />
<path style="fill:#e5bf26" d="M508,150 l0,60 -60,0 0,-60 60,0z" />
<path style="fill:#f2d151" d="M571,165 l0,32 -42,0 0,-32 42,0z" />
<path style="fill:#f2d151" d="M508,160 l0,41 -60,0 0,-41 60,0z" />
<path style="fill:#ffe57f" d="M508,171 l0,21 -60,0 0,-21 60,0z" />
<path style="fill:#ffe57f" d="M571,173 l0,15 -42,0 0,-15 42,0z" />
<path style="fill:none;stroke:#000;stroke-width:2" d="M508,129 l0,102 -60,0 0,-102 60,0" />
<path style="fill:#c90" d="M448,305 l51,0 0,183 -51,0 0,-183z" />
<path style="fill:#c90;stroke:#000;stroke-width:2" d="M254,284 l194,0 0,236 -194,0 0,-236z" />
<path style="fill:#d4a400" d="M448,314 l51,0 0,162 -51,0 0,-162z" />
<path style="fill:#d4a400" d="M254,297 l194,0 0,208 -194,0 0,-208z" />
<path style="fill:#dbb000" d="M448,327 l51,0 0,138 -51,0 0,-138z" />
<path style="fill:#dbb000" d="M254,312 l194,0 0,178 -194,0 0,-178z" />
<path style="fill:#e3ba1a" d="M448,339 l51,0 0,115 -51,0 0,-115z" />
<path style="fill:#e3ba1a" d="M254,327 l194,0 0,148 -194,0 0,-148z" />
<path style="fill:#e8c433" d="M448,350 l51,0 0,92 -51,0 0,-92z" />
<path style="fill:#e8c433" d="M254,343 l194,0 0,116 -194,0 0,-116z" />
<path style="fill:#f0cf4d" d="M448,361 l51,0 0,70 -51,0 0,-70z" />
<path style="fill:#f0cf4d" d="M254,356 l194,0 0,90 -194,0 0,-90z" />
<path style="fill:#f7db66" d="M448,373 l51,0 0,47 -51,0 0,-47z" />
<path style="fill:#f7db66" d="M254,371 l194,0 0,60 -194,0 0,-60z" />
<path style="fill:#ffe57f" d="M448,384 l51,0 0,25 -51,0 0,-25z" />
<path style="fill:#ffe57f" d="M254,386 l194,0 0,30 -194,0 0,-30z" />
<path style="fill:none;stroke:#000;stroke-width:2" d="M448,305 l51,0 0,183 -51,0 0,-183" />
<path style="fill:#c90" d="M580,324 l0,53 -132,0 0,-53 132,0z" />
<path style="fill:#d9ab00" d="M582,329 l0,42 -134,0 0,-42 134,0z" />
<path style="fill:#e5bf26" d="M582,335 l0,30 -134,0 0,-30 134,0z" />
<path style="fill:#f2d151" d="M582,339 l0,21 -134,0 0,-21 134,0z" />
<path style="fill:#ffe57f" d="M580,345 l0,9 -132,0 0,-9 132,0z" />
<path style="fill:none;stroke:#000;stroke-width:2" d="M580,324 l0,53 -132,0 0,-53 132,0" />
<path style="fill:none;stroke:#000;stroke-width:2" d="M490,324 l0,53" />

</svg>
