<?xml version="1.0" encoding="iso-8859-1"?>
<!DOCTYPE svg PUBLIC "-//W3C//DTD SVG 20000303 Stylable//EN"
"http://www.w3.org/TR/2000/03/WD-SVG-20000303/DTD/svg-20000303-stylable.dtd">

<svg width="1.4185in" height="1.4792in" viewBox="0 0 958 999">

<path id="border" style="fill:#e5e5e5;stroke:#000;stroke-width:2" d="M28,28 l0,927 887,0 0,-927 -887,0z" />
<path id="panel" style="fill:#7f7272" d="M68,68 l0,847 807,0 0,-847 -807,0z" />
<path id="tlline" style="fill:#4c4c4c" d="M68,915 l0,-847 807,0 0,15 -792,0 0,832 -15,0z" />
<path id="sunlight2" style="fill:#e5e5e5" d="M204,733 l207,-221 181,-243 -267,298 -121,166z" />
<path id="sunlight1" style="fill:#b2b2b2" d="M154,345 l106,-106 92,-131 -137,152 -61,85z" />
<path id="sunlight3" style="fill:#b2b2b2" d="M515,492 l143,-152 106,-146 -172,191 -77,107z" />
<path id="sunlight4" style="fill:#b2b2b2" d="M547,900 l141,-152 103,-141 -168,188 -76,105z" />
<path id="hshadow1" style="fill:none;stroke:#000;stroke-width:2" d="M68,194 l807,0" />
<path id="hshadow2" style="fill:none;stroke:#000;stroke-width:2" d="M68,315 l807,0" />
<path id="hshadow3" style="fill:none;stroke:#000;stroke-width:2" d="M68,436 l807,0" />
<path id="hshadow4" style="fill:none;stroke:#000;stroke-width:2" d="M68,557 l807,0" />
<path id="hshadow5" style="fill:none;stroke:#000;stroke-width:2" d="M68,678 l807,0" />
<path id="hshadow6" style="fill:none;stroke:#000;stroke-width:2" d="M68,799 l807,0" />
<path id="tlshadow" style="fill:none;stroke:#000;stroke-width:2" d="M875,68 l-807,0 0,847" />
<path id="vshadow1" style="fill:none;stroke:#000;stroke-width:2" d="M153,68 l0,847" />
<path id="vshadow2" style="fill:none;stroke:#000;stroke-width:2" d="M234,68 l0,847" />
<path id="vshadow3" style="fill:none;stroke:#000;stroke-width:2" d="M315,68 l0,847" />
<path id="vshadow4" style="fill:none;stroke:#000;stroke-width:2" d="M395,68 l0,847" />
<path id="vshadow5" style="fill:none;stroke:#000;stroke-width:2" d="M476,68 l0,847" />
<path id="vshadow6" style="fill:none;stroke:#000;stroke-width:2" d="M557,68 l0,847" />
<path id="vshadow7" style="fill:none;stroke:#000;stroke-width:2" d="M637,68 l0,847" />
<path id="vshadow8" style="fill:none;stroke:#000;stroke-width:2" d="M718,68 l0,847" />
<path id="vshadow9" style="fill:none;stroke:#000;stroke-width:2" d="M799,68 l0,847" />
<path id="rbline" style="fill:none;stroke:#fff;stroke-width:2" d="M68,915 l807,0 0,-847" />
<path id="vline1" style="fill:none;stroke:#fff;stroke-width:2" d="M149,68 l0,847" />
<path id="vline1" style="fill:none;stroke:#fff;stroke-width:2" d="M229,68 l0,847" />
<path id="vline1" style="fill:none;stroke:#fff;stroke-width:2" d="M310,68 l0,847" />
<path id="vline1" style="fill:none;stroke:#fff;stroke-width:2" d="M391,68 l0,847" />
<path id="vline1" style="fill:none;stroke:#fff;stroke-width:2" d="M471,68 l0,847" />
<path id="vline1" style="fill:none;stroke:#fff;stroke-width:2" d="M552,68 l0,847" />
<path id="vline1" style="fill:none;stroke:#fff;stroke-width:2" d="M633,68 l0,847" />
<path id="vline1" style="fill:none;stroke:#fff;stroke-width:2" d="M713,68 l0,847" />
<path id="vline1" style="fill:none;stroke:#fff;stroke-width:2" d="M794,68 l0,847" />
<path id="hline1" style="fill:none;stroke:#fff;stroke-width:2" d="M68,189 l807,0" />
<path id="hline2" style="fill:none;stroke:#fff;stroke-width:2" d="M68,310 l807,0" />
<path id="hline3" style="fill:none;stroke:#fff;stroke-width:2" d="M68,431 l807,0" />
<path id="hline4" style="fill:none;stroke:#fff;stroke-width:2" d="M68,552 l807,0" />
<path id="hline5" style="fill:none;stroke:#fff;stroke-width:2" d="M68,673 l807,0" />
<path id="hline6" style="fill:none;stroke:#fff;stroke-width:2" d="M68,794 l807,0" />
<path id="border-shadow" style="fill:#000" d="M930,43 l0,927 -887,0 0,-15 872,0 0,-912 15,0z" />

</svg>
